<?xml version="1.0" encoding="UTF-8"?>
<svg version="1.1" xmlns="http://www.w3.org/2000/svg" width="500" height="250">
<path d="M0 0 C165 0 330 0 500 0 C500 82.5 500 165 500 250 C335 250 170 250 0 250 C0 167.5 0 85 0 0 Z " fill="#FEFEFE" transform="translate(0,0)"/>
<path d="M0 0 C14.52 0 29.04 0 44 0 C44.06766881 21.59190238 44.12295366 43.18371917 44.15543652 64.77570057 C44.17091841 74.8007823 44.19203315 84.82579357 44.22631836 94.85083008 C44.25618028 103.58664184 44.27556538 112.32240258 44.28226548 121.05826396 C44.28618319 125.68566908 44.29541769 130.31292821 44.31719017 134.94028664 C44.33750473 139.29292475 44.34384404 143.64535632 44.33932304 147.99803734 C44.34015051 149.59805803 44.34614611 151.1980854 44.35761642 152.79806519 C44.37248229 154.97804455 44.36897586 157.15723798 44.36076355 159.3372345 C44.36352893 160.5586102 44.36629431 161.7799859 44.36914349 163.03837299 C44 166 44 166 42.60245228 167.85392284 C38.97529253 170.44807494 35.5954473 170.17848339 31.2890625 170.203125 C30.52451752 170.20882507 29.75997253 170.21452515 28.97225952 170.22039795 C27.35326523 170.2298497 25.73425168 170.23638263 24.11523438 170.24023438 C21.64158442 170.24993496 19.16876719 170.28095335 16.6953125 170.3125 C15.12240077 170.31903068 13.54948309 170.3242809 11.9765625 170.328125 C10.86856796 170.3466452 10.86856796 170.3466452 9.7381897 170.36553955 C6.79061661 170.35279264 4.45999557 170.23102624 1.80286026 168.89651775 C-0.84084455 166.11547409 -0.49240062 164.09250697 -0.48101807 160.29927063 C-0.48443577 159.61475411 -0.48785347 158.93023759 -0.49137473 158.22497815 C-0.49797551 155.92601103 -0.4759432 153.62820563 -0.45410156 151.3293457 C-0.45297355 149.6836042 -0.45360604 148.03786069 -0.45587158 146.39212036 C-0.45702147 141.91912462 -0.43346788 137.44655603 -0.40557575 132.97365975 C-0.38060778 128.30116189 -0.37822374 123.62865474 -0.37347412 118.95610046 C-0.36103078 110.10565547 -0.32819083 101.2554076 -0.28807616 92.4050495 C-0.24340067 82.33022967 -0.22138205 72.25540054 -0.20129442 62.18050635 C-0.15945931 41.45353636 -0.08609003 20.72683668 0 0 Z " fill="#FD9E1B" transform="translate(89,39)"/>
<path d="M0 0 C14.85 0 29.7 0 45 0 C45.11283252 17.79351451 45.204952 35.58672415 45.25906086 53.38049698 C45.28485141 61.64230397 45.32001789 69.90387305 45.37719727 78.16552734 C45.42700656 85.36573021 45.45928483 92.5657608 45.47044247 99.76613116 C45.47696556 103.57938381 45.49231335 107.39214356 45.52865028 111.20523834 C45.56257132 114.79386644 45.57306126 118.38179833 45.56553841 121.97057152 C45.56757136 123.91651153 45.59448713 125.86237559 45.62210083 127.80812073 C45.61522751 128.96635849 45.60835419 130.12459625 45.60127258 131.31793213 C45.60588155 132.32453007 45.61049051 133.33112801 45.61523914 134.36822891 C44.76156251 138.01994954 43.12563013 139.05272212 40 141 C37.20774536 141.40244567 34.81847745 141.58549818 32.03125 141.56640625 C31.27332153 141.57260483 30.51539307 141.57880341 29.73449707 141.58518982 C28.13762695 141.59226989 26.54068273 141.58914558 24.94384766 141.57641602 C22.50675192 141.56253845 20.07349115 141.59665264 17.63671875 141.63476562 C16.08072823 141.63571684 14.52473293 141.63385786 12.96875 141.62890625 C12.24465942 141.64216446 11.52056885 141.65542267 10.77453613 141.66908264 C7.34781939 141.6063133 5.20024906 141.12803699 2.30415344 139.27630615 C-1.73896302 134.90978785 -0.64725359 128.50138699 -0.56762695 122.94799805 C-0.56621578 121.60737664 -0.56700981 120.26675137 -0.56983948 118.9261322 C-0.5712724 115.29397271 -0.54190409 111.66264106 -0.50696969 108.03067374 C-0.47568481 104.23239082 -0.4727738 100.4340883 -0.46684265 96.63569641 C-0.45131037 89.44623879 -0.41029059 82.25716193 -0.3600952 75.06787187 C-0.3041823 66.88175031 -0.2767104 58.69561043 -0.25161803 50.50934541 C-0.19937379 33.67263899 -0.10769023 16.83645695 0 0 Z " fill="#2EC3B6" transform="translate(217,68)"/>
<path d="M0 0 C12.54 0 25.08 0 38 0 C38.11282333 19.09734405 38.20494677 38.19441872 38.25906086 57.29201126 C38.28485366 66.15915092 38.32002457 75.02606898 38.37719727 83.89306641 C38.42699951 91.62064629 38.45928319 99.34806571 38.47044247 107.07580161 C38.47696671 111.16849615 38.4923222 115.26073158 38.52865028 119.35327911 C38.56255997 123.20454296 38.57306343 127.05515813 38.56553841 130.90655708 C38.56691524 132.32073808 38.57687851 133.73494052 38.59602737 135.14899254 C38.62087853 137.07860028 38.61194864 139.00855522 38.60127258 140.93829346 C38.60588155 142.01863483 38.61049051 143.09897621 38.61523914 144.21205521 C38 147 38 147 35.65358257 149.3455162 C30.6093214 152.49056564 24.77819396 151.61231202 19 151.5625 C17.72898438 151.58634766 16.45796875 151.61019531 15.1484375 151.63476562 C13.92382812 151.63283203 12.69921875 151.63089844 11.4375 151.62890625 C10.32246094 151.62963135 9.20742187 151.63035645 8.05859375 151.63110352 C4.96913335 150.99363104 3.21133974 150.25832128 1.04375648 147.94669437 C-1.49362069 143.21427072 -0.63923015 137.26690165 -0.56762695 132.0300293 C-0.56621594 130.59088694 -0.56700951 129.15174098 -0.56983948 127.71260071 C-0.57127299 123.81187843 -0.5418947 119.91192625 -0.50696969 116.01138282 C-0.47569486 111.93282469 -0.47277458 107.85424853 -0.46684265 103.77558899 C-0.45130746 96.05490452 -0.41028359 88.33457441 -0.3600952 80.61404592 C-0.30419149 71.82333719 -0.27671269 63.03261146 -0.25161803 54.24176919 C-0.19936717 36.16093779 -0.10767976 18.08059212 0 0 Z " fill="#CAF1EE" transform="translate(137,58)"/>
<path d="M0 0 C11.88 0 23.76 0 36 0 C36.11284948 19.73199221 36.20496209 39.46372333 36.25906086 59.19595623 C36.28484703 68.35788713 36.32000537 77.51960336 36.37719727 86.68139648 C36.42701969 94.66644855 36.45928801 102.65134516 36.47044247 110.63654834 C36.47696326 114.86508446 36.49229709 119.09317582 36.52865028 123.32156944 C36.56259172 127.30169266 36.57305692 131.28118799 36.56553841 135.26144218 C36.56691381 136.72196617 36.57685805 138.18251117 36.59602737 139.64291 C36.62092848 141.63785857 36.61193717 143.63314414 36.60127258 145.6282196 C36.60588155 146.74451091 36.61049051 147.86080221 36.61523914 149.01092052 C35.79844446 152.97923797 34.10348025 154.48372361 31 157 C28.125 157.64697266 28.125 157.64697266 25 157.6640625 C23.2984375 157.67373047 23.2984375 157.67373047 21.5625 157.68359375 C20.386875 157.66425781 19.21125 157.64492187 18 157.625 C16.824375 157.64433594 15.64875 157.66367188 14.4375 157.68359375 C13.303125 157.67714844 12.16875 157.67070312 11 157.6640625 C9.96875 157.65842285 8.9375 157.6527832 7.875 157.64697266 C3.93948039 156.76134707 2.54668976 155.08662615 0 152 C-0.61523914 149.01092052 -0.61523914 149.01092052 -0.60127258 145.6282196 C-0.6081459 144.34239487 -0.61501923 143.05657013 -0.62210083 141.73178101 C-0.60440727 140.31426415 -0.58623325 138.89675322 -0.56762695 137.47924805 C-0.56621602 135.98099312 -0.56700935 134.48273473 -0.56983948 132.98448181 C-0.5712733 128.92262034 -0.54188967 124.86149804 -0.50696969 120.79980826 C-0.47570025 116.55308521 -0.472775 112.30634495 -0.46684265 108.05952454 C-0.45130589 100.02010315 -0.41027983 91.98102197 -0.3600952 83.94175035 C-0.30419642 74.78828956 -0.27671391 65.63481247 -0.25161803 56.48122346 C-0.19936361 37.65391694 -0.10767417 18.82707676 0 0 Z " fill="#FBBD69" transform="translate(178,52)"/>
<path d="M0 0 C10.89 0 21.78 0 33 0 C33.06768579 21.44424788 33.12296359 42.88840945 33.15543652 64.33273697 C33.17091412 74.28940908 33.19202069 84.24601018 33.22631836 94.20263672 C33.25619339 102.87949443 33.2755685 111.55630071 33.28226548 120.23320842 C33.28618096 124.82878785 33.29540139 129.42422016 33.31719017 134.0197525 C33.33752538 138.34366694 33.34383983 142.66737338 33.33932304 146.9913311 C33.34014958 148.57964393 33.34613293 150.16796359 33.35761642 151.75623512 C33.37251455 153.92272816 33.36896398 156.08843306 33.36076355 158.25494385 C33.36352893 159.46802341 33.36629431 160.68110298 33.36914349 161.93094254 C32.96617709 165.28120356 32.38358897 166.65079623 30 169 C25.43672321 170.52109226 20.90597494 170.30731567 16.125 170.375 C14.63419922 170.43107422 14.63419922 170.43107422 13.11328125 170.48828125 C12.15035156 170.49988281 11.18742187 170.51148438 10.1953125 170.5234375 C9.31891113 170.54325684 8.44250977 170.56307617 7.53955078 170.58349609 C3.81661863 169.72810215 2.40188709 167.9206165 0 165 C-0.61523914 161.80789471 -0.61523914 161.80789471 -0.60127258 158.13468933 C-0.60554471 157.45663107 -0.60981683 156.7785728 -0.61421841 156.07996732 C-0.62243521 153.81459599 -0.59498925 151.5510885 -0.56762695 149.28588867 C-0.56621618 147.65955652 -0.56700904 146.03322117 -0.56983948 144.40689087 C-0.57127391 139.99589126 -0.54188004 135.58557165 -0.50696969 131.17473006 C-0.47571058 126.56365009 -0.47277581 121.95255447 -0.46684265 117.34138489 C-0.45130289 108.61136513 -0.41027264 99.88165849 -0.3600952 91.15177661 C-0.30420586 81.21235353 -0.27671627 71.27291548 -0.25161803 61.33337438 C-0.1993568 40.88870267 -0.10766345 20.4444602 0 0 Z " fill="#3BB7FE" transform="translate(266,39)"/>
<path d="M0 0 C11.88 0 23.76 0 36 0 C36.11280522 16.76771562 36.20493594 33.5351082 36.25906086 50.30309772 C36.28485836 58.08851504 36.32003794 65.87368012 36.37719727 73.65893555 C36.42698549 80.44345314 36.45927978 87.2277881 36.47044247 94.0124833 C36.47696919 97.60606406 36.4923395 101.19912228 36.52865028 104.79253578 C36.56882905 108.80113671 36.56995243 112.80882545 36.56762695 116.81762695 C36.58560333 118.0130864 36.60357971 119.20854584 36.62210083 120.44023132 C36.61522751 121.52978119 36.60835419 122.61933105 36.60127258 123.74189758 C36.60588155 124.69042256 36.61049051 125.63894754 36.61523914 126.61621571 C36 129 36 129 33.64210796 130.80238628 C28.67100518 133.05568591 23.37077413 132.51177801 18 132.5 C16.824375 132.52835938 15.64875 132.55671875 14.4375 132.5859375 C13.303125 132.58851563 12.16875 132.59109375 11 132.59375 C9.96875 132.60083984 8.9375 132.60792969 7.875 132.61523438 C3.71048959 131.72405178 2.52569993 130.45831237 0 127 C-0.73648199 122.92826609 -0.63106355 118.90144024 -0.56762695 114.77416992 C-0.56835709 113.53473633 -0.56908722 112.29530273 -0.56983948 111.01831055 C-0.56695638 107.62761886 -0.5419156 104.23845659 -0.50696969 100.84803557 C-0.4756744 97.30200076 -0.47277299 93.7559447 -0.46684265 90.20979309 C-0.45131338 83.49843791 -0.41029784 76.78749084 -0.3600952 70.07631522 C-0.30417279 62.43432262 -0.27670804 54.79231035 -0.25161803 47.15016401 C-0.19938062 31.43316622 -0.10770104 15.71673046 0 0 Z " fill="#FDDD59" transform="translate(375,77)"/>
<path d="M0 0 C11.22 0 22.44 0 34 0 C34.11280954 16.11579725 34.20493838 32.23125832 34.25906086 48.34734058 C34.28485731 55.8300927 34.3200348 63.31258235 34.37719727 70.79516602 C34.42698881 77.31599511 34.45928055 83.83663416 34.47044247 90.35764807 C34.47696866 93.81150979 34.49233532 97.26482775 34.52865028 100.7185154 C34.56883435 104.57131874 34.56995216 108.42358714 34.56762695 112.27661133 C34.58560333 113.42531708 34.60357971 114.57402283 34.62210083 115.75753784 C34.61522751 116.80501694 34.60835419 117.85249603 34.60127258 118.93171692 C34.60588155 119.84337018 34.61049051 120.75502344 34.61523914 121.69430256 C34 124 34 124 31.63736248 125.7915144 C26.78913943 128.01305497 21.68384367 127.47034563 16.4375 127.4375 C15.30119141 127.45748047 14.16488281 127.47746094 12.99414062 127.49804688 C11.90166016 127.49740234 10.80917969 127.49675781 9.68359375 127.49609375 C8.68900146 127.49794678 7.69440918 127.4997998 6.66967773 127.50170898 C3.22130208 126.85366034 2.19474844 125.6981356 0 123 C-0.49219131 120.5868721 -0.49219131 120.5868721 -0.48101807 117.84942627 C-0.48651672 116.80898666 -0.49201538 115.76854706 -0.49768066 114.69657898 C-0.48329956 113.56081924 -0.46891846 112.42505951 -0.45410156 111.25488281 C-0.45468567 110.05460953 -0.45526978 108.85433624 -0.45587158 107.61769104 C-0.45356318 104.33056997 -0.4335109 101.04413104 -0.40557575 97.75714588 C-0.3805614 94.32052897 -0.37822009 90.88389849 -0.37347412 87.44720459 C-0.36104437 80.94129545 -0.32822303 74.43565534 -0.28807616 67.92986465 C-0.24335823 60.52245389 -0.2213714 53.11503025 -0.20129442 45.7075181 C-0.15949011 30.47149644 -0.08613812 15.23584532 0 0 Z " fill="#C0FD71" transform="translate(303,82)"/>
<path d="M0 0 C9.9 0 19.8 0 30 0 C30.11286738 17.64586021 30.20497233 35.29141243 30.25906086 52.93753338 C30.28484262 61.1309317 30.31999231 69.32408983 30.37719727 77.51733398 C30.42703346 84.65858282 30.45929123 91.79965772 30.47044247 98.94107562 C30.47696099 102.72250419 30.49227981 106.50343514 30.52865028 110.28470421 C30.56261381 113.84460972 30.57305266 117.40381314 30.56553841 120.96386528 C30.56756772 122.89172194 30.5944613 124.81950228 30.62210083 126.74716187 C30.56581118 136.17499796 30.56581118 136.17499796 27.61651611 139.27630615 C24.80079329 141.13123228 23.39561583 141.63182805 20.05859375 141.62890625 C19.14529297 141.63083984 18.23199219 141.63277344 17.29101562 141.63476562 C16.34935547 141.61091797 15.40769531 141.58707031 14.4375 141.5625 C13.01920898 141.57893555 13.01920898 141.57893555 11.57226562 141.59570312 C4.65801385 141.52240717 4.65801385 141.52240717 1.88615799 139.32178879 C-0.4650149 136.42758433 -0.49454717 135.01137771 -0.48101807 131.31793213 C-0.48651672 130.15969437 -0.49201538 129.0014566 -0.49768066 127.80812073 C-0.48329956 126.54145065 -0.46891846 125.27478058 -0.45410156 123.96972656 C-0.452973 122.61940037 -0.45360712 121.26907172 -0.45587158 119.91874695 C-0.45701934 116.2556623 -0.43350076 112.59310149 -0.40557575 108.93013859 C-0.38057199 105.10113747 -0.37822092 101.27212436 -0.37347412 97.4430542 C-0.36104128 90.19342307 -0.32821566 82.9440332 -0.28807616 75.69450831 C-0.24336792 67.44067683 -0.22137382 59.18683382 -0.20129442 50.9329114 C-0.15948311 33.95511076 -0.08612712 16.97764244 0 0 Z " fill="#DCAF7F" transform="translate(342,68)"/>
<path d="M0 0 C0.99 0 1.98 0 3 0 C3.33 4.62 3.66 9.24 4 14 C4.99 13.34 5.98 12.68 7 12 C12.34704794 11.56878646 15.66461829 11.53169463 20 15 C24.15701153 19.33862854 23.47613859 23.92070094 23.36328125 29.62890625 C22.8917738 34.00429258 22.03149387 35.87934454 19 39 C16.56045342 40.21977329 14.84694151 40.20153813 12.125 40.25 C11.26132813 40.27578125 10.39765625 40.3015625 9.5078125 40.328125 C6.54975351 39.94108924 5.20798216 38.95124005 3 37 C2.67 37.99 2.34 38.98 2 40 C1.34 40 0.68 40 0 40 C0 26.8 0 13.6 0 0 Z " fill="#2CBDB0" transform="translate(224,149)"/>
<path d="M0 0 C0.86367188 -0.03738281 1.72734375 -0.07476562 2.6171875 -0.11328125 C5.99138143 0.45959591 7.00051721 1.66675522 9.125 4.3125 C9.57910156 6.96972656 9.57910156 6.96972656 9.515625 9.953125 C9.49628906 11.55800781 9.49628906 11.55800781 9.4765625 13.1953125 C9.44304687 14.30648437 9.40953125 15.41765625 9.375 16.5625 C9.35695313 17.68914062 9.33890625 18.81578125 9.3203125 19.9765625 C9.27320222 22.75606896 9.20743361 25.5338534 9.125 28.3125 C8.465 28.3125 7.805 28.3125 7.125 28.3125 C6.795 27.3225 6.465 26.3325 6.125 25.3125 C5.56941406 25.79847656 5.01382812 26.28445312 4.44140625 26.78515625 C1.7453465 28.56282803 0.26093614 28.74517581 -2.9375 28.75 C-3.79472656 28.76933594 -4.65195312 28.78867188 -5.53515625 28.80859375 C-7.875 28.3125 -7.875 28.3125 -9.65234375 26.50390625 C-11.47259975 23.24140269 -11.39843828 20.97656795 -10.875 17.3125 C-7.94987834 14.38737834 -5.45906581 12.37196193 -1.2734375 12.21484375 C0.22316406 12.23224609 0.22316406 12.23224609 1.75 12.25 C3.25433594 12.26353516 3.25433594 12.26353516 4.7890625 12.27734375 C5.55992187 12.28894531 6.33078125 12.30054688 7.125 12.3125 C6.84348913 10.99778432 6.54946661 9.68574233 6.25 8.375 C6.08757812 7.64410156 5.92515625 6.91320312 5.7578125 6.16015625 C5.29538477 4.10549706 5.29538477 4.10549706 3.125 3.3125 C-0.71436768 3.1703012 -4.19516639 3.13495324 -7.875 4.3125 C-7.545 3.3225 -7.215 2.3325 -6.875 1.3125 C-4.44538821 0.0976941 -2.71115884 0.07642733 0 0 Z " fill="#080A04" transform="translate(324.875,160.6875)"/>
<path d="M0 0 C0.99 0 1.98 0 3 0 C3.33 4.62 3.66 9.24 4 14 C4.99 13.34 5.98 12.68 7 12 C12.34704794 11.56878646 15.66461829 11.53169463 20 15 C24.15701153 19.33862854 23.47613859 23.92070094 23.36328125 29.62890625 C22.8917738 34.00429258 22.03149387 35.87934454 19 39 C16.56045342 40.21977329 14.84694151 40.20153813 12.125 40.25 C11.26132813 40.27578125 10.39765625 40.3015625 9.5078125 40.328125 C6.54975351 39.94108924 5.20798216 38.95124005 3 37 C2.67 37.99 2.34 38.98 2 40 C1.34 40 0.68 40 0 40 C0 26.8 0 13.6 0 0 Z M5.0625 15.6875 C1.8803335 20.79825226 2.12819926 26.12987503 3 32 C4.16732767 34.26014506 5.19913713 36.19913713 7 38 C12.97972892 38.67715159 12.97972892 38.67715159 17.9375 35.625 C21.62832978 30.92758028 21.67175562 26.84875223 21 21 C19.68882399 17.88673375 18.09390848 15.54695424 15 14 C10.90149228 13.53601799 8.66896723 13.61569968 5.0625 15.6875 Z " fill="#071F1D" transform="translate(224,149)"/>
<path d="M0 0 C4.19833317 0.42694914 5.70724864 1.48505929 8.6875 4.375 C8.3575 6.025 8.0275 7.675 7.6875 9.375 C7.0275 9.375 6.3675 9.375 5.6875 9.375 C5.81125 10.7671875 5.81125 10.7671875 5.9375 12.1875 C5.6875 15.375 5.6875 15.375 4 17.25 C1.26389764 18.58107683 -0.30730842 18.83733717 -3.3125 18.375 C-4.9765625 17.26171875 -4.9765625 17.26171875 -6.3125 15.375 C-6.45703125 12.30859375 -6.45703125 12.30859375 -6.125 8.8125 C-6.02832031 7.65621094 -5.93164062 6.49992187 -5.83203125 5.30859375 C-5.08423756 1.08608953 -4.25654702 0.48187325 0 0 Z " fill="#2C1B04" transform="translate(109.3125,65.625)"/>
<path d="M0 0 C2.47035712 2.47035712 2.35042281 3.3960007 2.4375 6.8125 C2.3583419 10.71951741 2.13845092 11.80221297 -0.1875 15.125 C-3 17 -3 17 -5.625 17.5625 C-8 17 -8 17 -9.6171875 15.27734375 C-11.98204544 11.38267658 -11.77419253 7.40413297 -11 3 C-7.63993791 -1.24949029 -5.06999865 -1.57733291 0 0 Z " fill="#120B02" transform="translate(115,139)"/>
<path d="M0 0 C2.47035712 2.47035712 2.35042281 3.3960007 2.4375 6.8125 C2.3583419 10.71951741 2.13845092 11.80221297 -0.1875 15.125 C-3 17 -3 17 -5.625 17.5625 C-8 17 -8 17 -9.6171875 15.27734375 C-11.98204544 11.38267658 -11.77419253 7.40413297 -11 3 C-7.63993791 -1.24949029 -5.06999865 -1.57733291 0 0 Z " fill="#120B02" transform="translate(115,103)"/>
<path d="M0 0 C0.99 0 1.98 0 3 0 C5.97 7.59 8.94 15.18 12 23 C14.97 15.41 17.94 7.82 21 0 C21.99 0 22.98 0 24 0 C21.66875514 7.26151272 19.01269723 14.37335968 16.23876953 21.47705078 C15.49434736 23.38952201 14.76091463 25.306001 14.02734375 27.22265625 C13.55425781 28.43566406 13.08117187 29.64867187 12.59375 30.8984375 C12.16771484 31.99849121 11.74167969 33.09854492 11.30273438 34.23193359 C10.08957356 36.80967296 9.29594534 38.34523242 7 40 C3.3125 40.1875 3.3125 40.1875 0 40 C0 39.34 0 38.68 0 38 C0.928125 37.95875 1.85625 37.9175 2.8125 37.875 C6.1708763 37.29589654 6.1708763 37.29589654 7.9375 34.5 C10.40275089 26.37917353 7.15012197 19.0475208 3.9375 11.5625 C3.19380113 9.79414935 2.45277398 8.02467191 1.71484375 6.25390625 C1.38605225 5.48377197 1.05726074 4.7136377 0.71850586 3.92016602 C0 2 0 2 0 0 Z " fill="#201C0B" transform="translate(386,161)"/>
<path d="M0 0 C0.49065421 6.37850467 0.49065421 6.37850467 -1.875 9.375 C-5.66237126 12.27122508 -8.24721142 12.25461367 -13 12 C-15 10 -15 10 -15.4375 6.5625 C-15 3 -15 3 -13.125 1.0625 C-8.72356374 -0.43398833 -4.60447094 -0.24139945 0 0 Z " fill="#B9F56D" transform="translate(332,175)"/>
<path d="M0 0 C1.32 0 2.64 0 4 0 C4.33 1.65 4.66 3.3 5 5 C5.6496875 4.01 5.6496875 4.01 6.3125 3 C6.869375 2.34 7.42625 1.68 8 1 C8.99 1 9.98 1 11 1 C10.06666667 5.8 10.06666667 5.8 9.375 7.875 C8.81922598 11.02438609 9.45913496 13.87500199 10 17 C8.68 16.67 7.36 16.34 6 16 C5.67 14.68 5.34 13.36 5 12 C4.34 13.98 3.68 15.96 3 18 C2.01 18 1.02 18 0 18 C0 12.06 0 6.12 0 0 Z " fill="#120B01" transform="translate(105,173)"/>
<path d="M0 0 C0.66 0 1.32 0 2 0 C2 11.55 2 23.1 2 35 C7.94 35 13.88 35 20 35 C20 35.66 20 36.32 20 37 C13.4 37 6.8 37 0 37 C0 24.79 0 12.58 0 0 Z " fill="#000000" transform="translate(146,152)"/>
<path d="M0 0 C0.66 0 1.32 0 2 0 C2.33 1.32 2.66 2.64 3 4 C3.515625 3.34 4.03125 2.68 4.5625 2 C7.79995755 -0.65637543 9.92552281 -0.31342132 14 0 C14 0.66 14 1.32 14 2 C12.3603125 2.4021875 12.3603125 2.4021875 10.6875 2.8125 C6.65387928 4.07719899 6.65387928 4.07719899 4 7 C3.49753325 9.31250836 3.49753325 9.31250836 3.48828125 11.88671875 C3.43510742 13.2934082 3.43510742 13.2934082 3.38085938 14.72851562 C3.35830078 15.70498047 3.33574219 16.68144531 3.3125 17.6875 C3.27833984 18.67556641 3.24417969 19.66363281 3.20898438 20.68164062 C3.12649462 23.12098053 3.05734932 25.55996063 3 28 C2.01 28 1.02 28 0 28 C0 18.76 0 9.52 0 0 Z " fill="#071721" transform="translate(282,161)"/>
<path d="M0 0 C0.33 0 0.66 0 1 0 C1.33 4.95 1.66 9.9 2 15 C3.32 13.68 4.64 12.36 6 11 C11.35123602 10.40541822 14.66757082 10.53405666 19 14 C21.29093083 16.42309991 21.96595069 17.64951911 22.29296875 21.015625 C22.25816406 22.08296875 22.22335938 23.1503125 22.1875 24.25 C22.16042969 25.32765625 22.13335937 26.4053125 22.10546875 27.515625 C22.07066406 28.33546875 22.03585938 29.1553125 22 30 C21.34 30 20.68 30 20 30 C19.96261719 29.33613281 19.92523438 28.67226562 19.88671875 27.98828125 C19.39055034 21.01433671 19.39055034 21.01433671 16 15 C12.90826248 13.45413124 10.40570448 13.70640479 7 14 C4.40087749 15.1786663 4.40087749 15.1786663 3 18 C2.37839679 21.66113756 2.12788528 25.29132699 2 29 C1.67 29 1.34 29 1 29 C0.04531742 22.62542652 -0.1202324 16.43938347 -0.0625 10 C-0.05798828 9.03449219 -0.05347656 8.06898438 -0.04882812 7.07421875 C-0.03715417 4.71607911 -0.02078021 2.35807398 0 0 Z " fill="#020B0B" transform="translate(225,150)"/>
<path d="M0 0 C0.66 0 1.32 0 2 0 C2.33 1.32 2.66 2.64 3 4 C3.515625 3.34 4.03125 2.68 4.5625 2 C7.79995755 -0.65637543 9.92552281 -0.31342132 14 0 C14 0.66 14 1.32 14 2 C12.3603125 2.4021875 12.3603125 2.4021875 10.6875 2.8125 C6.69133728 4.09308312 6.69133728 4.09308312 4 7 C2.85345518 9.29308963 2.80270883 10.79909656 2.68359375 13.3515625 C2.64169922 14.20234375 2.59980469 15.053125 2.55664062 15.9296875 C2.51732422 16.81914062 2.47800781 17.70859375 2.4375 18.625 C2.39431641 19.5221875 2.35113281 20.419375 2.30664062 21.34375 C2.20043139 23.56234283 2.09838806 25.7810488 2 28 C1.34 28 0.68 28 0 28 C0 18.76 0 9.52 0 0 Z " fill="#040302" transform="translate(357,161)"/>
<path d="M0 0 C-1 2 -1 2 -3.06640625 2.8515625 C-4.30197266 3.23441406 -4.30197266 3.23441406 -5.5625 3.625 C-6.80193359 4.01558594 -6.80193359 4.01558594 -8.06640625 4.4140625 C-8.70449219 4.60742188 -9.34257812 4.80078125 -10 5 C-10.04241723 7.33294775 -10.04092937 9.66702567 -10 12 C-8.8448749 13.38177162 -8.8448749 13.38177162 -5.6875 13.125 C-2.85351237 13.02893262 -0.66404901 12.85249568 2 12 C1 15 1 15 -1 16 C-3.27734375 16.23828125 -3.27734375 16.23828125 -5.9375 16.3125 C-6.81277344 16.34988281 -7.68804687 16.38726562 -8.58984375 16.42578125 C-11 16 -11 16 -12.78515625 14.19921875 C-14.59077034 10.93053472 -14.52340158 8.66381106 -14 5 C-9.39815886 0.39815886 -6.36820348 -0.11792969 0 0 Z " fill="#11160A" transform="translate(328,173)"/>
<path d="M0 0 C3.69230769 0.69230769 3.69230769 0.69230769 5 2 C5.29386153 5.72224599 5.14809171 6.77786243 3 10 C1.68 10 0.36 10 -1 10 C-1.02689216 8.52093108 -1.04634621 7.04172517 -1.0625 5.5625 C-1.07410156 4.73878906 -1.08570312 3.91507813 -1.09765625 3.06640625 C-1 1 -1 1 0 0 Z " fill="#E79019" transform="translate(109,142)"/>
<path d="M0 0 C3.69230769 0.69230769 3.69230769 0.69230769 5 2 C5.29386153 5.72224599 5.14809171 6.77786243 3 10 C1.68 10 0.36 10 -1 10 C-1.02689216 8.52093108 -1.04634621 7.04172517 -1.0625 5.5625 C-1.07410156 4.73878906 -1.08570312 3.91507812 -1.09765625 3.06640625 C-1 1 -1 1 0 0 Z " fill="#E79019" transform="translate(109,106)"/>
<path d="M0 0 C2.625 1.875 2.625 1.875 4 4 C4 4.66 4 5.32 4 6 C3.01 6 2.02 6 1 6 C0.38125 5.2575 0.38125 5.2575 -0.25 4.5 C-3.00153983 2.14153729 -5.50259318 2.75456794 -9 3 C-11.31036915 3.42854995 -11.31036915 3.42854995 -13 4 C-12.67 3.01 -12.34 2.02 -12 1 C-8.31085851 -0.84457074 -4.02706861 -0.4871454 0 0 Z " fill="#101609" transform="translate(330,161)"/>
<path d="M0 0 C0.99 0 1.98 0 3 0 C2.16607751 3.12720935 1.45564406 5.47685312 -0.6875 7.9375 C-4.01259897 9.46524818 -6.4973153 8.74095253 -10 8 C-10 7.67 -10 7.34 -10 7 C-8.906875 6.773125 -7.81375 6.54625 -6.6875 6.3125 C-2.46301765 4.80887069 -2.00363288 3.80690247 0 0 Z " fill="#061B19" transform="translate(244,180)"/>
<path d="M0 0 C-1 2 -1 2 -3.06640625 2.8515625 C-4.30197266 3.23441406 -4.30197266 3.23441406 -5.5625 3.625 C-6.80193359 4.01558594 -6.80193359 4.01558594 -8.06640625 4.4140625 C-8.70449219 4.60742188 -9.34257812 4.80078125 -10 5 C-10.33 6.98 -10.66 8.96 -11 11 C-11.99 9.68 -12.98 8.36 -14 7 C-12.98929671 4.3354186 -12.0600516 3.04804128 -9.8125 1.25 C-6.37585024 -0.27739989 -3.72102151 -0.21888362 0 0 Z " fill="#1E2812" transform="translate(328,173)"/>
<path d="M0 0 C0.99 0 1.98 0 3 0 C2.01 2.97 1.02 5.94 0 9 C-0.99 9 -1.98 9 -3 9 C-2.01 6.03 -1.02 3.06 0 0 Z " fill="#312B11" transform="translate(407,161)"/>
<path d="M0 0 C0 0.66 0 1.32 0 2 C-1.28745036 2.38922918 -2.58019597 2.76098036 -3.875 3.125 C-4.59429687 3.33382812 -5.31359375 3.54265625 -6.0546875 3.7578125 C-6.69664062 3.83773437 -7.33859375 3.91765625 -8 4 C-8.66 3.34 -9.32 2.68 -10 2 C-6.3558226 -0.4294516 -4.28758728 -0.16179575 0 0 Z " fill="#14100C" transform="translate(371,161)"/>
<path d="M0 0 C0 0.99 0 1.98 0 3 C-1 4 -1 4 -4.5625 4.0625 C-5.696875 4.041875 -6.83125 4.02125 -8 4 C-8 3.34 -8 2.68 -8 2 C-5.36 1.34 -2.72 0.68 0 0 Z " fill="#0D0B04" transform="translate(394,197)"/>
<path d="M0 0 C1.39195915 4.17587745 -0.17676781 6.13474776 -2 10 C-2.66 10 -3.32 10 -4 10 C-4 9.01 -4 8.02 -4 7 C-3.34 7 -2.68 7 -2 7 C-2.04125 6.21625 -2.0825 5.4325 -2.125 4.625 C-2 2 -2 2 0 0 Z " fill="#0E0C05" transform="translate(401,180)"/>
<path d="M0 0 C0.99 0 1.98 0 3 0 C3.66 2.31 4.32 4.62 5 7 C4.01 7 3.02 7 2 7 C1.34 4.69 0.68 2.38 0 0 Z " fill="#372F13" transform="translate(386,161)"/>
<path d="M0 0 C2.62187494 1.04874998 3.79371361 1.64931313 5.25 4.125 C5.4975 4.74375 5.745 5.3625 6 6 C3 6 3 6 1.3125 4.6875 C0 3 0 3 0 0 Z " fill="#18200E" transform="translate(328,161)"/>
</svg>
